{"glyphs":{"0":{"ha":792,"x_min":0,"x_max":0,"o":"m 333 389 b 347 175 333 284 338 213 b 396 118 355 137 372 118 b 445 175 420 118 436 137 b 458 389 454 213 458 284 b 445 603 458 494 454 565 b 396 660 436 641 420 660 b 347 603 372 660 355 641 b 333 389 338 565 333 494 m 35 389 b 130 697 35 522 66 625 b 396 806 193 769 282 806 b 666 699 515 806 605 770 b 757 389 727 627 757 524 b 658 82 757 257 724 155 b 396 -28 591 9 504 -28 b 130 81 282 -28 193 8 b 35 389 66 153 35 256 "},"1":{"ha":792,"x_min":0,"x_max":0,"o":"m 63 132 b 69 174 63 156 65 170 b 110 181 73 178 87 181 l 200 181 b 253 189 229 181 247 183 b 264 228 260 194 264 207 l 264 432 b 258 472 264 453 262 466 b 229 479 253 477 244 479 l 117 479 b 92 483 104 479 95 481 b 86 501 88 486 86 492 l 86 582 b 94 638 86 614 89 633 b 150 646 99 642 118 645 b 326 676 220 648 279 658 b 440 782 372 695 411 730 b 447 794 441 785 443 789 b 453 804 450 800 452 803 b 458 810 454 805 456 807 b 467 816 461 814 464 816 b 480 818 471 816 475 817 b 500 819 485 819 492 819 l 538 819 b 569 814 554 819 565 818 b 576 792 574 810 576 803 l 576 225 b 585 187 576 204 579 191 b 633 181 590 183 606 181 l 696 181 b 742 174 722 181 737 178 b 750 138 747 170 750 158 l 750 57 b 743 7 750 28 748 12 b 694 0 738 2 722 0 l 106 0 b 69 9 86 0 74 3 b 63 57 65 15 63 31 "},"2":{"ha":792,"x_min":0,"x_max":0,"o":"m 764 275 b 698 35 761 175 739 95 b 514 -56 657 -25 595 -56 b 426 -40 481 -56 451 -50 b 368 -7 400 -30 381 -19 b 319 26 355 5 339 16 b 257 42 300 37 279 42 b 161 3 214 42 182 29 b 152 -10 158 -1 155 -5 b 145 -20 149 -14 147 -18 b 135 -26 144 -22 141 -24 b 115 -28 130 -27 124 -28 l 61 -28 b 40 -24 50 -28 43 -27 b 35 -11 36 -22 35 -18 b 35 -1 35 -9 35 -6 b 36 11 36 3 36 7 b 301 363 48 179 137 296 b 411 446 355 385 392 413 b 440 569 431 479 440 520 b 408 656 440 604 429 633 b 308 692 386 680 353 692 b 267 682 293 692 279 688 b 250 661 256 675 250 669 b 269 649 250 657 256 653 l 310 635 b 352 599 326 630 340 618 b 371 525 365 580 371 556 b 322 431 371 491 354 459 b 204 389 289 403 250 389 b 87 430 155 389 116 403 b 43 550 58 457 43 497 b 150 733 43 624 79 685 b 392 806 221 781 302 806 b 649 744 497 806 583 785 b 747 556 714 704 747 641 b 655 394 747 489 716 435 b 350 272 593 353 492 312 b 261 235 306 259 277 247 b 246 218 251 227 246 222 b 249 217 246 217 247 217 b 271 225 252 217 260 219 b 361 246 299 239 329 246 b 456 222 391 246 422 238 b 536 199 490 206 517 199 b 636 260 588 199 621 219 b 640 276 638 264 639 270 b 642 290 641 282 642 286 b 649 298 643 293 645 296 b 668 301 653 300 660 301 l 743 301 b 763 297 754 301 761 300 b 764 275 764 294 765 287 "},"3":{"ha":792,"x_min":0,"x_max":0,"o":"m 21 -1 b 69 123 21 48 37 89 b 179 174 101 157 138 174 b 285 139 222 174 257 162 b 328 38 314 116 328 82 b 315 -15 328 17 323 0 b 285 -47 306 -30 296 -41 b 255 -65 274 -53 264 -59 b 242 -85 246 -72 242 -78 b 300 -122 242 -110 261 -122 b 406 -69 342 -122 377 -105 b 450 69 435 -34 450 12 b 335 269 450 189 412 256 b 324 272 332 270 328 271 b 316 272 320 272 317 272 b 310 274 315 272 313 273 b 306 276 308 275 306 275 b 303 281 305 277 304 279 b 301 290 302 284 301 286 l 301 301 l 301 356 b 302 368 301 361 302 365 b 303 376 303 371 303 373 b 307 381 304 378 305 380 b 312 382 309 381 310 382 b 320 383 313 382 316 382 b 331 385 324 384 328 385 b 404 439 368 391 392 409 b 422 557 416 469 422 508 b 393 659 422 603 413 637 b 328 692 374 681 352 692 b 267 679 305 692 284 688 b 242 650 250 671 242 661 b 267 631 242 644 250 638 b 317 597 283 624 300 613 b 342 533 333 581 342 560 b 301 444 342 495 328 466 b 200 411 275 422 241 411 b 93 457 158 411 123 426 b 49 572 63 488 49 526 b 139 739 49 639 79 694 b 383 806 199 783 281 806 b 637 742 491 806 575 784 b 729 557 698 700 729 638 b 558 344 729 442 672 371 b 506 328 523 336 506 331 b 547 313 506 323 519 318 b 757 69 687 284 757 203 b 642 -156 757 -27 719 -102 b 328 -236 566 -209 461 -236 b 95 -171 222 -236 145 -214 b 21 -1 46 -127 21 -71 "},"4":{"ha":792,"x_min":0,"x_max":0,"o":"m 771 -161 b 765 -201 771 -182 769 -196 b 736 -208 762 -206 752 -208 l 283 -208 b 256 -203 269 -208 260 -206 b 249 -183 251 -199 249 -193 b 249 -169 249 -181 249 -176 b 250 -153 250 -163 250 -157 l 250 -82 b 253 -60 250 -71 251 -64 b 269 -56 256 -57 261 -56 l 313 -56 b 329 -56 317 -56 323 -56 b 343 -57 336 -57 340 -57 b 363 -50 352 -57 359 -55 b 368 -24 366 -45 368 -37 l 368 18 b 363 55 368 38 366 50 b 336 63 359 60 350 63 l 63 63 b 38 66 49 63 41 64 b 35 93 36 68 35 77 l 35 131 b 64 251 35 165 44 205 b 160 420 88 309 120 365 b 263 569 200 475 234 525 b 319 706 291 614 310 659 b 324 732 320 712 322 721 b 328 753 325 743 327 750 b 333 765 329 756 330 759 b 344 774 335 770 339 773 b 364 776 350 775 356 775 b 396 778 371 777 382 778 l 613 778 b 644 754 634 778 644 770 b 643 742 644 750 644 747 b 640 728 642 738 641 734 b 636 715 638 723 637 719 b 567 586 626 669 603 626 b 453 488 532 546 494 514 b 322 390 413 463 369 430 b 211 263 275 349 238 307 b 186 217 194 234 186 219 b 233 201 186 206 202 201 l 350 201 b 365 205 358 201 363 203 b 368 225 367 207 368 214 l 368 265 b 369 288 368 275 369 282 b 376 303 370 294 372 299 b 383 311 379 308 381 310 b 397 317 385 312 390 314 b 413 325 403 321 409 323 b 509 388 451 344 484 365 b 567 478 534 410 554 440 b 570 490 568 481 569 484 b 574 500 572 495 573 498 b 578 506 575 502 576 504 b 584 511 580 509 582 510 b 594 513 586 512 590 513 b 611 514 599 514 605 514 l 639 514 b 662 510 651 514 659 513 b 667 493 665 507 667 501 l 667 225 b 672 206 667 215 668 208 b 699 201 675 203 684 201 l 736 201 b 759 197 748 201 756 200 b 764 181 762 194 764 189 l 764 89 b 759 67 764 77 762 69 b 731 63 756 64 746 63 l 693 63 b 672 57 682 63 675 61 b 667 26 668 53 667 43 l 667 -25 b 674 -50 667 -38 669 -46 b 708 -56 678 -54 690 -56 l 746 -56 b 772 -76 763 -56 772 -62 b 772 -88 772 -78 772 -82 b 771 -103 771 -94 771 -99 "},"5":{"ha":792,"x_min":0,"x_max":0,"o":"m 21 13 b 70 152 21 68 37 115 b 200 208 103 190 146 208 b 306 168 245 208 281 195 b 343 65 331 141 343 107 b 329 7 343 41 338 22 b 299 -20 320 -8 310 -17 b 268 -34 288 -23 277 -28 b 254 -58 259 -40 254 -48 b 272 -89 254 -70 260 -81 b 314 -101 283 -97 297 -101 b 411 -59 353 -101 385 -87 b 450 83 437 -31 450 17 b 421 251 450 168 440 224 b 342 293 401 279 375 293 b 242 265 311 293 278 284 b 178 246 216 252 194 246 l 89 246 b 60 261 69 246 60 251 b 62 275 60 264 60 269 b 64 292 63 281 64 287 l 111 739 b 122 777 113 759 117 772 b 154 785 128 782 138 785 l 315 785 b 377 784 331 785 352 784 b 429 783 403 784 420 783 b 578 821 502 783 552 796 l 583 826 b 588 830 585 828 587 829 b 592 833 588 830 590 831 b 596 837 594 835 595 836 b 601 839 597 837 598 838 b 607 841 603 840 605 841 b 614 842 609 841 611 842 b 623 843 617 843 620 843 l 633 843 l 678 843 b 701 825 694 843 701 837 b 699 794 701 821 700 811 l 692 688 b 676 603 690 653 685 625 b 645 551 668 582 658 564 b 586 522 633 537 613 528 b 503 510 559 516 532 512 b 383 507 475 508 435 507 l 257 507 b 236 504 245 507 238 506 b 231 483 234 502 232 495 l 222 408 b 222 403 222 406 222 405 b 221 399 221 401 221 400 b 226 386 221 390 223 386 b 241 393 229 386 234 388 b 258 403 248 398 254 401 b 400 431 300 421 347 431 b 659 347 507 431 594 403 b 757 111 724 292 757 213 b 633 -140 757 4 716 -80 b 314 -229 551 -199 444 -229 b 94 -157 217 -229 144 -205 b 21 13 45 -109 21 -52 "},"6":{"ha":792,"x_min":0,"x_max":0,"o":"m 333 277 b 335 219 333 262 334 242 b 341 167 337 195 339 178 b 351 131 343 156 347 144 b 369 105 356 119 362 110 b 394 97 376 100 384 97 b 445 151 419 97 436 115 b 458 306 454 188 458 239 b 445 465 458 382 454 435 b 401 508 436 494 422 508 b 333 347 356 508 333 455 m 764 306 b 665 71 764 215 731 137 b 388 -28 598 5 506 -28 b 115 101 264 -28 174 15 b 28 486 57 188 28 316 b 143 859 28 631 66 756 b 450 1014 220 962 322 1014 b 676 958 543 1014 618 995 b 764 807 735 920 764 870 b 718 688 764 756 749 716 b 606 646 688 660 650 646 b 499 681 563 646 528 657 b 457 782 471 704 457 738 b 469 831 457 800 461 817 b 492 865 477 846 484 857 b 504 883 500 874 504 880 b 436 914 504 904 481 914 b 336 642 378 914 344 823 l 336 622 b 342 603 336 609 338 603 b 348 605 344 603 346 603 b 358 612 350 606 354 609 b 372 619 363 615 368 618 b 453 632 388 628 415 632 b 678 545 545 632 620 603 b 764 306 735 487 764 407 "},"7":{"ha":792,"x_min":0,"x_max":0,"o":"m 42 475 b 53 608 43 526 46 570 b 85 715 59 646 70 682 b 149 792 100 749 121 774 b 250 819 176 810 210 819 b 348 806 286 819 319 815 b 415 774 377 796 400 786 b 470 743 431 763 449 752 b 535 729 491 734 513 729 b 628 753 571 729 602 737 b 646 770 634 757 640 763 b 664 786 651 777 657 782 b 694 792 670 790 681 792 l 733 792 b 769 774 757 792 769 786 b 758 731 769 771 766 756 b 511 275 730 638 647 486 b 457 147 475 219 457 176 b 471 103 457 131 462 117 b 501 67 480 89 490 77 b 531 19 511 58 521 42 b 544 -58 540 -3 544 -29 b 494 -175 544 -105 528 -144 b 367 -222 460 -206 418 -222 b 242 -172 317 -222 275 -206 b 193 -33 209 -139 193 -93 b 233 113 193 17 206 65 b 360 293 259 160 301 220 b 474 449 400 345 438 397 l 507 494 b 503 496 507 495 506 496 b 475 489 497 496 488 494 b 417 476 450 481 431 476 b 328 507 387 476 358 487 b 256 538 299 527 275 538 b 171 483 214 538 186 519 b 164 458 168 478 166 469 b 154 438 162 447 159 441 b 125 435 150 436 140 435 l 81 435 b 48 439 63 435 52 436 b 42 464 44 442 42 450 l 42 475 "},"8":{"ha":792,"x_min":0,"x_max":0,"o":"m 326 264 b 346 131 326 207 333 163 b 396 83 359 99 375 83 b 446 131 416 83 433 99 b 465 264 459 163 465 207 b 446 403 465 321 459 368 b 396 456 433 438 416 456 b 346 403 375 456 359 438 b 326 264 333 368 326 321 m 69 736 b 160 933 69 814 100 880 b 396 1014 221 987 300 1014 b 631 933 492 1014 571 987 b 722 736 692 880 722 814 b 685 613 722 689 710 648 b 581 535 660 578 625 552 b 531 510 547 523 531 514 b 571 489 531 504 544 497 b 703 399 627 470 671 440 b 750 250 734 357 750 307 b 660 47 750 164 720 96 b 396 -28 600 -3 512 -28 b 132 47 280 -28 192 -3 b 42 250 72 96 42 164 b 83 390 42 304 56 350 b 200 481 111 430 150 460 b 254 510 236 494 254 504 b 247 518 254 513 252 515 b 219 531 241 521 232 525 b 185 547 206 536 195 542 b 69 736 108 589 69 652 m 340 736 b 396 563 340 620 359 563 b 451 736 433 563 451 620 b 396 896 451 843 433 896 b 340 736 359 896 340 843 "},"9":{"ha":792,"x_min":0,"x_max":0,"o":"m 458 431 b 447 618 458 514 454 576 b 397 681 439 660 422 681 b 347 626 372 681 355 663 b 333 472 338 590 333 539 b 347 313 333 395 338 342 b 390 269 355 284 370 269 b 458 431 436 269 458 323 m 28 472 b 127 707 28 563 61 641 b 404 806 193 773 286 806 b 676 676 527 806 618 763 b 764 292 735 590 764 462 b 649 -81 764 146 725 22 b 342 -236 572 -184 469 -236 b 115 -180 249 -236 174 -217 b 28 -29 57 -142 28 -92 b 74 90 28 22 43 61 b 186 132 104 118 142 132 b 292 97 229 132 264 120 b 335 -4 321 74 335 40 b 323 -53 335 -23 331 -39 b 299 -87 315 -68 307 -79 b 288 -106 291 -95 288 -101 b 356 -136 288 -126 310 -136 b 454 114 412 -136 445 -53 b 457 154 456 138 457 151 b 450 169 457 164 455 169 b 442 167 448 169 445 169 b 427 161 438 166 433 164 b 408 154 421 158 415 156 b 339 146 389 149 366 146 b 114 233 246 146 171 175 b 28 472 56 291 28 370 "}," ":{"ha":417,"x_min":0,"x_max":0,"o":""},"!":{"ha":554,"x_min":0,"x_max":0,"o":"m 111 139 b 160 257 111 185 127 225 b 278 306 192 289 231 306 b 396 257 324 306 363 289 b 444 139 428 225 444 185 b 396 21 444 93 428 53 b 278 -28 363 -12 324 -28 b 160 21 231 -28 192 -12 b 111 139 127 53 111 93 m 456 867 b 393 638 446 789 425 713 b 339 450 361 564 343 501 l 339 428 b 334 406 339 418 337 410 b 308 400 331 402 322 400 l 256 400 b 236 401 247 400 241 400 b 225 403 231 402 228 403 b 219 409 222 403 220 405 b 216 417 217 413 216 416 b 215 431 216 418 215 422 b 214 447 214 439 214 444 b 160 638 210 499 192 563 b 97 867 127 713 106 789 l 97 893 b 149 1022 97 950 115 993 b 276 1067 184 1052 226 1067 b 405 1022 327 1067 370 1052 b 457 893 440 993 457 950 b 456 867 457 882 456 873 "},"\"":{"ha":764,"x_min":0,"x_max":0,"o":"m 358 908 b 311 799 354 883 338 847 b 263 676 284 752 268 711 b 260 660 262 672 261 666 b 259 649 260 654 259 650 b 255 642 259 647 257 644 b 245 637 253 639 249 637 b 228 636 241 636 235 636 l 188 636 b 163 640 176 636 168 637 b 153 647 157 642 154 644 b 150 664 152 649 151 655 b 147 686 149 673 148 681 b 100 802 142 718 126 756 b 56 908 74 848 59 883 b 54 933 55 915 54 923 b 97 1028 54 971 69 1003 b 207 1067 126 1054 163 1067 b 317 1028 251 1067 288 1054 b 360 933 345 1003 360 971 b 358 908 360 923 359 915 m 719 908 b 672 799 715 883 699 847 b 624 676 645 752 629 711 b 622 660 623 672 622 666 b 620 649 621 654 621 650 b 616 642 620 647 618 644 b 606 637 614 639 610 637 b 589 636 602 636 596 636 l 549 636 b 524 640 538 636 529 637 b 514 647 518 642 515 644 b 511 664 513 649 512 655 b 508 686 510 673 509 681 b 461 802 503 718 487 756 b 417 908 435 848 420 883 b 415 933 416 915 415 923 b 458 1028 415 971 430 1003 b 568 1067 487 1054 524 1067 b 678 1028 613 1067 649 1054 b 721 933 706 1003 721 971 b 719 908 721 923 720 915 "},"#":{"ha":917,"x_min":0,"x_max":0,"o":"m 389 1118 b 419 1117 404 1118 414 1118 b 431 1113 424 1117 428 1116 b 435 1100 433 1111 435 1106 b 432 1074 435 1097 434 1088 l 403 822 b 401 801 403 817 402 810 b 399 785 399 793 399 788 b 408 768 399 776 402 771 b 447 764 415 765 428 764 l 518 764 b 535 765 525 764 530 764 b 547 768 539 765 543 766 b 553 772 550 770 552 771 b 558 778 555 772 556 774 b 560 788 559 783 560 786 b 561 801 560 789 560 794 b 563 815 562 808 563 813 l 593 1079 b 601 1113 595 1098 597 1109 b 633 1118 604 1116 615 1118 l 708 1118 b 735 1116 722 1118 731 1117 b 742 1104 740 1115 742 1111 b 739 1078 742 1101 741 1093 l 710 829 b 704 788 706 803 704 789 b 715 769 704 778 708 772 b 757 764 722 766 736 764 l 900 764 b 926 758 914 764 922 762 b 931 726 929 755 931 744 l 931 661 b 925 624 931 640 929 627 b 889 618 921 620 909 618 l 721 618 b 690 613 704 618 694 616 b 681 579 685 609 682 598 l 669 479 b 667 458 668 468 667 461 b 673 447 667 452 669 448 b 703 444 677 445 687 444 l 856 444 b 884 441 871 444 881 443 b 889 418 887 439 889 431 l 889 319 b 885 302 889 310 888 304 b 863 299 882 300 875 299 l 688 299 b 651 293 667 299 655 297 b 643 258 648 289 645 278 l 610 -32 b 601 -70 608 -53 605 -66 b 564 -76 598 -74 585 -76 l 493 -76 b 460 -61 471 -76 460 -71 b 462 -47 460 -58 460 -54 b 464 -32 463 -41 464 -36 l 499 269 b 499 277 499 271 499 274 b 500 283 500 280 500 282 b 496 296 500 290 499 294 b 479 299 493 298 488 299 l 374 299 l 360 299 b 351 297 356 299 353 298 b 345 294 348 295 347 294 b 342 288 344 293 343 291 b 340 281 341 285 340 283 b 339 272 340 280 340 277 b 338 260 338 266 338 263 l 304 -31 b 303 -44 304 -33 304 -38 b 301 -56 302 -50 301 -54 b 300 -64 301 -57 301 -60 b 296 -70 299 -68 298 -70 b 289 -73 294 -71 292 -72 b 278 -76 286 -74 283 -75 b 263 -76 274 -76 269 -76 l 182 -76 b 154 -65 163 -76 154 -73 b 157 -44 154 -62 155 -56 l 192 253 b 194 281 194 269 194 279 b 186 295 194 288 192 293 b 151 299 181 297 169 299 l 17 299 b -9 302 3 299 -6 300 b -14 321 -12 304 -14 311 l -14 408 b -10 440 -14 426 -12 436 b 18 444 -7 443 2 444 l 174 444 b 210 450 194 444 206 446 b 218 483 213 454 216 465 l 229 575 b 231 597 230 581 231 589 b 224 615 231 606 228 612 b 199 618 220 617 212 618 l 61 618 b 32 623 44 618 35 620 b 28 654 29 626 28 637 l 28 735 b 32 759 28 748 29 756 b 49 764 35 762 40 764 l 213 764 b 246 770 230 764 241 766 b 256 806 250 774 254 786 l 288 1079 b 295 1113 289 1098 292 1109 b 329 1118 298 1116 310 1118 m 422 618 b 384 613 401 618 388 616 b 375 576 380 609 377 597 l 364 483 b 361 458 362 469 361 460 b 367 447 361 452 363 448 b 394 444 372 445 381 444 l 479 444 b 515 449 499 444 510 446 b 524 482 519 453 522 463 l 535 575 b 536 601 536 582 536 591 b 529 616 536 610 534 615 b 494 618 525 617 513 618 "},"$":{"ha":1007,"x_min":0,"x_max":0,"o":"m 615 1160 b 634 1159 625 1160 631 1159 b 642 1156 637 1159 640 1157 b 644 1146 644 1154 644 1150 b 644 1139 644 1145 644 1143 b 643 1129 643 1135 643 1132 l 640 1088 l 640 1074 b 653 1056 640 1063 644 1057 l 671 1053 b 900 965 763 1038 839 1009 b 992 790 961 921 992 863 b 949 670 992 738 978 697 b 833 629 921 643 882 629 b 729 661 794 629 759 640 b 685 765 700 682 685 717 b 709 828 685 790 693 811 b 733 861 725 846 733 856 b 658 903 733 875 708 889 b 636 908 645 906 638 908 b 625 883 630 908 626 900 l 613 714 b 612 703 613 711 612 708 b 611 694 611 699 611 696 b 626 668 611 681 616 672 b 642 663 629 666 634 664 l 650 660 b 775 615 699 645 741 630 b 881 554 809 600 845 580 b 965 456 918 528 946 496 b 993 319 984 417 993 371 b 876 92 993 231 954 156 b 586 -18 797 29 701 -8 b 576 -19 583 -18 580 -18 b 567 -19 572 -19 569 -19 b 562 -21 566 -19 564 -20 b 558 -24 559 -22 558 -23 b 556 -30 557 -26 556 -28 b 554 -40 555 -32 554 -36 l 551 -89 b 545 -115 550 -104 548 -112 b 517 -118 542 -117 532 -118 l 413 -118 b 394 -116 402 -118 396 -117 b 390 -107 391 -115 390 -112 l 390 -93 l 394 -42 l 394 -32 b 394 -23 394 -28 394 -25 b 392 -17 393 -21 393 -19 b 387 -14 391 -16 389 -15 b 381 -12 384 -13 382 -12 b 371 -12 379 -12 375 -12 b 360 -11 366 -11 363 -11 b 103 76 252 3 167 32 b 8 258 40 120 8 181 b 58 388 8 315 25 358 b 167 433 91 418 127 433 b 285 399 216 433 255 422 b 329 297 314 375 329 342 b 303 227 329 273 321 250 b 278 181 286 204 278 189 b 365 128 278 154 307 136 b 390 125 380 126 388 125 b 410 156 402 125 409 135 l 426 368 l 426 382 l 426 391 b 424 398 426 393 426 396 b 422 403 423 400 422 402 b 416 406 421 404 419 405 b 410 408 413 406 411 407 b 401 410 409 408 406 409 b 390 414 397 412 393 413 b 274 455 345 427 306 441 b 176 513 241 469 209 488 b 102 605 144 537 119 567 b 76 735 85 642 76 686 b 180 954 76 825 111 899 b 443 1057 249 1010 337 1044 b 453 1058 446 1057 449 1057 b 462 1059 458 1058 460 1059 b 467 1060 463 1059 465 1060 b 472 1063 470 1061 471 1062 l 476 1066 b 478 1072 477 1067 478 1069 l 480 1078 b 481 1089 480 1081 481 1084 l 485 1133 b 490 1156 486 1146 487 1154 b 515 1160 492 1159 500 1160 m 438 892 b 383 800 401 868 383 837 b 422 739 383 777 396 756 b 444 726 435 731 443 726 b 456 764 451 726 455 739 l 464 872 b 465 881 464 875 464 878 b 465 888 465 884 465 887 b 460 903 465 898 463 903 b 438 892 457 903 450 899 m 600 132 b 681 256 654 154 681 195 b 617 342 681 290 659 319 b 593 351 604 348 596 351 b 582 319 587 351 583 341 l 569 156 l 569 142 b 578 125 569 131 572 125 b 600 132 581 125 588 127 "},"%":{"ha":1472,"x_min":0,"x_max":0,"o":"m 1097 292 b 1107 140 1097 219 1100 168 b 1146 97 1113 111 1126 97 b 1185 140 1165 97 1178 111 b 1194 292 1191 168 1194 219 b 1185 444 1194 365 1191 416 b 1146 486 1178 472 1165 486 b 1107 444 1126 486 1113 472 b 1097 292 1100 416 1097 365 m 819 292 b 908 526 819 391 849 469 b 1146 611 966 583 1046 611 b 1384 526 1246 611 1325 583 b 1472 292 1443 469 1472 391 b 1376 60 1472 196 1440 119 b 1146 -28 1311 2 1235 -28 b 908 58 1046 -28 966 1 b 819 292 849 115 819 193 m 1136 1042 b 1181 1031 1166 1042 1181 1038 b 1177 1022 1181 1028 1179 1025 b 1166 1008 1175 1018 1171 1014 b 1154 992 1161 1002 1157 996 l 531 58 b 522 44 529 56 526 51 b 513 31 517 37 514 32 b 504 22 511 29 508 26 b 495 13 500 17 497 15 b 485 8 493 12 489 10 b 469 3 480 5 475 4 b 450 1 464 2 457 1 b 425 0 443 0 434 0 l 347 0 b 301 17 317 0 301 6 b 321 56 301 23 308 36 l 965 1008 b 993 1038 976 1025 986 1035 b 1028 1042 1000 1040 1012 1042 m 278 750 b 288 598 278 677 281 626 b 326 556 294 570 307 556 b 365 598 346 556 359 570 b 375 750 372 626 375 677 b 365 902 375 823 372 874 b 326 944 359 930 346 944 b 288 902 307 944 294 930 b 278 750 281 874 278 823 m 0 750 b 88 984 0 849 29 927 b 326 1069 147 1041 226 1069 b 565 984 426 1069 506 1041 b 653 750 623 927 653 849 b 556 519 653 655 621 578 b 326 431 492 460 415 431 b 88 516 226 431 147 459 b 0 750 29 573 0 651 "},"&":{"ha":1278,"x_min":0,"x_max":0,"o":"m 1158 639 b 1183 633 1171 639 1179 637 b 1188 599 1186 628 1188 617 l 1188 521 b 1183 485 1188 501 1186 490 b 1156 479 1179 481 1170 479 l 1100 479 b 1075 474 1090 479 1081 478 b 1063 465 1069 471 1064 468 b 1055 447 1061 463 1058 456 b 1047 426 1052 437 1049 430 b 968 285 1027 377 1000 330 b 942 240 950 261 942 246 b 953 213 942 233 945 224 l 975 182 b 1000 161 984 170 993 163 b 1019 160 1005 160 1011 160 l 1175 160 b 1191 155 1183 160 1189 158 b 1194 132 1193 152 1194 144 l 1194 22 b 1190 3 1194 12 1193 6 b 1164 0 1186 1 1178 0 l 806 0 b 768 3 789 0 776 1 b 751 13 760 6 754 9 b 733 35 747 16 742 24 b 713 53 724 47 717 53 b 683 40 712 53 702 49 b 389 -28 588 -5 490 -28 b 104 51 268 -28 173 -1 b 1 278 36 104 1 180 b 22 392 1 320 8 359 b 83 479 36 426 56 455 b 165 540 109 503 136 523 b 267 588 193 556 227 572 b 313 615 297 600 313 609 b 290 654 313 621 305 634 l 271 681 b 207 838 228 747 207 800 b 311 1009 207 912 242 969 b 583 1069 381 1049 471 1069 b 831 1015 686 1069 769 1051 b 925 868 894 979 925 930 b 869 717 925 807 906 756 b 711 610 831 677 779 641 b 679 594 694 601 683 596 b 757 485 697 569 723 532 b 818 401 791 439 812 411 b 842 372 832 382 840 372 b 858 388 846 372 852 377 b 889 443 869 403 879 422 b 900 469 896 458 900 467 b 858 479 900 476 886 479 l 831 479 b 811 494 818 479 811 484 b 812 504 811 496 811 500 b 813 515 812 509 813 513 l 813 597 b 819 633 813 617 815 628 b 858 639 823 637 836 639 m 376 438 b 321 306 339 400 321 356 b 359 191 321 256 334 218 b 465 150 384 164 420 150 b 572 164 503 150 539 155 b 618 189 603 172 618 181 b 596 226 618 193 611 205 l 453 426 b 415 464 435 451 423 464 b 376 438 407 464 394 455 m 589 740 b 626 780 603 740 615 753 b 642 854 636 806 642 831 b 582 944 642 914 622 944 b 531 923 563 944 546 937 b 510 868 517 909 510 890 b 550 776 510 846 523 815 b 589 740 566 752 579 740 "},"'":{"ha":415,"x_min":0,"x_max":0,"o":"m 358 908 b 311 799 354 883 338 847 b 263 676 284 752 268 711 b 260 660 262 672 261 666 b 259 649 260 654 259 650 b 255 642 259 647 257 644 b 245 637 253 639 249 637 b 228 636 241 636 235 636 l 188 636 b 163 640 176 636 168 637 b 153 647 157 642 154 644 b 150 664 152 649 151 655 b 147 686 149 673 148 681 b 100 802 142 718 126 756 b 56 908 74 848 59 883 b 54 933 55 915 54 923 b 97 1028 54 971 69 1003 b 207 1067 126 1054 163 1067 b 317 1028 251 1067 288 1054 b 360 933 345 1003 360 971 b 358 908 360 923 359 915 "},"(":{"ha":701,"x_min":0,"x_max":0,"o":"m 661 -206 b 654 -218 657 -212 655 -216 b 650 -226 653 -220 652 -222 b 644 -231 648 -229 646 -231 b 636 -232 641 -232 639 -232 b 613 -228 631 -232 624 -231 b 228 16 458 -186 330 -105 b 76 451 127 137 76 282 b 219 863 76 614 124 751 b 588 1096 314 974 437 1051 b 632 1108 614 1104 629 1108 b 656 1090 641 1108 649 1102 l 675 1054 b 694 1011 688 1028 694 1014 b 664 986 694 1004 684 995 b 467 801 575 947 509 885 b 403 451 424 716 403 600 b 649 -103 403 163 485 -21 b 667 -111 654 -106 660 -108 b 682 -117 674 -114 679 -116 b 690 -123 685 -119 687 -121 b 693 -132 692 -125 693 -128 b 685 -158 693 -137 690 -145 "},")":{"ha":674,"x_min":0,"x_max":0,"o":"m 13 1081 b 19 1093 16 1087 19 1091 b 24 1101 20 1095 22 1097 b 30 1106 25 1104 28 1106 b 38 1107 32 1107 35 1107 b 61 1103 42 1107 50 1106 b 445 859 216 1061 344 980 b 597 424 547 738 597 593 b 455 13 597 261 550 124 b 86 -221 360 -99 237 -176 b 42 -233 59 -229 44 -233 b 18 -215 32 -233 25 -227 l -1 -179 b -21 -136 -14 -153 -21 -139 b 10 -111 -21 -129 -11 -120 b 207 74 99 -72 164 -10 b 271 424 250 159 271 275 b 25 978 271 712 189 896 b 6 986 19 981 13 983 b -8 992 -1 989 -6 991 b -16 998 -11 994 -14 996 b -19 1007 -18 1000 -19 1003 b -11 1033 -19 1012 -17 1020 "},"*":{"ha":882,"x_min":0,"x_max":0,"o":"m 510 715 b 552 697 510 708 524 702 b 617 690 580 693 602 690 b 667 694 630 690 647 691 b 713 697 688 696 703 697 b 779 679 738 697 760 691 b 833 590 815 658 833 628 b 807 503 833 564 825 535 b 696 424 776 450 739 424 b 640 439 676 424 658 429 b 574 527 616 453 594 482 b 507 632 554 572 532 607 b 478 656 491 648 481 656 b 474 649 475 656 474 653 b 478 621 474 642 475 633 b 535 507 487 586 506 548 b 579 404 565 466 579 432 b 542 321 579 368 567 340 b 440 292 517 301 483 292 b 339 321 398 292 364 301 b 301 404 314 340 301 368 b 347 510 301 433 317 468 b 406 632 378 551 397 592 l 408 651 b 406 658 408 656 407 658 b 383 640 403 658 395 652 b 326 565 359 618 340 593 b 288 490 311 536 299 511 b 240 439 276 468 261 451 b 185 424 223 429 204 424 b 74 503 141 424 104 450 b 47 590 56 535 47 564 b 101 679 47 628 65 658 b 168 697 123 691 145 697 b 213 694 177 697 192 696 b 264 690 234 691 251 690 b 346 703 293 690 320 694 b 372 715 363 708 372 713 b 342 729 372 719 362 724 b 264 740 316 737 290 740 b 213 737 251 740 234 739 b 168 733 192 734 177 733 b 101 750 141 733 119 739 b 47 840 65 771 47 801 b 74 926 47 865 56 894 b 185 1007 105 980 142 1007 b 240 992 204 1007 223 1002 b 307 903 264 978 287 948 b 371 801 327 859 349 825 b 403 776 388 785 398 776 b 407 785 406 776 407 779 b 399 821 407 791 404 803 b 343 924 389 850 371 885 b 301 1026 315 964 301 998 b 339 1110 301 1063 314 1090 b 440 1139 364 1129 398 1139 b 542 1110 483 1139 517 1129 b 579 1026 567 1090 579 1063 b 538 926 579 999 566 965 b 483 826 511 888 493 854 b 474 786 477 808 474 794 b 479 778 474 781 475 778 b 513 806 485 778 496 787 b 559 876 531 826 547 849 b 594 945 572 902 583 925 b 640 992 606 965 621 981 b 696 1007 658 1002 676 1007 b 807 926 738 1007 775 980 b 833 840 825 894 833 865 b 779 750 833 801 815 771 b 713 733 760 739 738 733 b 667 737 703 733 688 734 b 617 740 647 739 630 740 b 552 733 602 740 580 738 b 510 715 524 729 510 723 "},"+":{"ha":736,"x_min":0,"x_max":0,"o":"m 631 497 b 650 495 642 497 648 497 b 653 478 652 494 653 488 l 653 404 b 647 383 653 393 651 386 b 619 379 644 381 634 379 l 458 379 b 432 375 444 379 436 378 b 426 356 428 372 426 366 l 426 193 b 427 181 426 190 427 186 b 428 171 428 176 428 173 b 403 153 428 159 419 153 l 343 153 b 314 157 326 153 317 154 b 310 189 311 160 310 170 l 310 350 b 306 374 310 363 309 371 b 289 379 304 378 298 379 l 114 379 b 88 383 99 379 90 380 b 83 403 85 385 83 392 l 83 469 b 87 493 83 482 84 490 b 104 497 89 496 95 497 l 283 497 b 311 518 302 497 311 504 b 310 530 311 520 311 524 b 310 544 310 536 310 541 l 310 700 b 315 718 310 709 311 715 b 340 722 318 721 326 722 l 375 722 b 391 723 379 722 384 722 b 404 724 398 723 402 724 b 422 718 413 724 418 722 b 426 693 425 714 426 706 l 426 529 b 433 503 426 515 429 506 b 469 497 438 499 450 497 "},",":{"ha":507,"x_min":0,"x_max":0,"o":"m 56 144 b 104 261 56 190 72 229 b 232 310 137 294 179 310 b 369 263 285 310 330 294 b 426 110 407 232 426 181 b 328 -115 426 19 394 -56 b 103 -215 263 -173 188 -207 b 82 -217 97 -216 90 -217 b 69 -211 75 -217 71 -215 b 67 -187 68 -207 67 -200 l 67 -117 b 67 -102 67 -110 67 -105 b 71 -95 68 -99 69 -97 b 76 -92 73 -94 74 -93 b 86 -91 77 -92 81 -91 b 100 -90 92 -91 96 -90 b 212 -58 140 -87 177 -76 b 282 11 247 -41 270 -18 b 288 31 286 19 288 26 b 285 35 288 33 287 35 b 260 15 283 35 275 28 b 178 -7 245 0 218 -7 b 90 35 142 -7 112 7 b 56 144 67 64 56 100 "},"-":{"ha":639,"x_min":0,"x_max":0,"o":"m 514 618 b 549 613 533 618 545 616 b 556 582 553 609 556 599 l 556 500 b 547 467 556 483 553 472 b 508 458 542 461 529 458 l 117 458 b 89 465 103 458 94 460 b 82 486 84 469 82 476 b 83 503 82 489 82 494 b 83 522 83 511 83 518 l 83 578 b 90 611 83 595 86 606 b 128 618 95 616 107 618 "},".":{"ha":444,"x_min":0,"x_max":0,"o":"m 56 139 b 104 257 56 185 72 225 b 222 306 137 289 176 306 b 340 257 269 306 308 289 b 389 139 373 225 389 185 b 340 21 389 93 373 53 b 222 -28 308 -12 269 -28 b 104 21 176 -28 137 -12 b 56 139 72 53 56 93 "},"/":{"ha":722,"x_min":0,"x_max":0,"o":"m 625 1083 b 660 1068 648 1083 660 1078 b 656 1050 660 1063 658 1057 l 246 -174 b 230 -203 240 -190 235 -200 b 190 -208 225 -207 212 -208 l 110 -208 b 61 -196 77 -208 61 -204 l 72 -160 l 485 1053 b 499 1079 489 1068 494 1076 b 536 1083 503 1082 516 1083 "},":":{"ha":442,"x_min":0,"x_max":0,"o":"m 56 139 b 104 257 56 185 72 225 b 222 306 137 289 176 306 b 340 257 269 306 308 289 b 389 139 373 225 389 185 b 340 21 389 93 373 53 b 222 -28 308 -12 269 -28 b 104 21 176 -28 137 -12 b 56 139 72 53 56 93 m 56 722 b 104 840 56 769 72 808 b 222 889 137 873 176 889 b 340 840 269 889 308 873 b 389 722 373 808 389 769 b 340 604 389 676 373 637 b 222 556 308 572 269 556 b 104 604 176 556 137 572 b 56 722 72 637 56 676 "},";":{"ha":465,"x_min":0,"x_max":0,"o":"m 56 144 b 104 261 56 190 72 229 b 232 310 137 294 179 310 b 369 263 285 310 330 294 b 426 110 407 232 426 181 b 328 -115 426 19 394 -56 b 103 -215 263 -173 188 -207 b 82 -217 97 -216 90 -217 b 69 -211 75 -217 71 -215 b 67 -187 68 -207 67 -200 l 67 -117 b 67 -102 67 -110 67 -105 b 71 -95 68 -99 69 -97 b 76 -92 73 -94 74 -93 b 86 -91 77 -92 81 -91 b 100 -90 92 -91 96 -90 b 212 -58 140 -87 177 -76 b 282 11 247 -41 270 -18 b 288 31 286 19 288 26 b 285 35 288 33 287 35 b 260 15 283 35 275 28 b 178 -7 245 0 218 -7 b 90 35 142 -7 112 7 b 56 144 67 64 56 100 m 56 722 b 104 840 56 769 72 808 b 222 889 137 873 176 889 b 340 840 269 889 308 873 b 389 722 373 808 389 769 b 340 604 389 676 373 637 b 222 556 308 572 269 556 b 104 604 176 556 137 572 b 56 722 72 637 56 676 "},"<":{"ha":778,"x_min":0,"x_max":0,"o":"m 639 368 b 686 342 665 358 681 349 b 694 281 692 334 694 314 l 694 228 b 683 179 694 195 691 179 b 647 192 681 179 669 183 l 142 388 b 93 428 118 397 101 410 b 81 501 85 447 81 471 b 82 548 81 511 81 526 b 83 600 83 570 83 587 b 92 661 83 633 86 654 b 139 688 97 669 113 677 l 636 881 b 681 897 664 892 679 897 b 694 850 690 897 694 881 l 694 775 b 692 747 694 763 694 753 b 683 728 691 740 688 734 b 672 719 678 723 674 720 b 652 712 669 717 663 715 b 631 704 641 709 634 706 l 275 567 b 217 539 236 552 217 543 b 269 511 217 534 234 525 "},"=":{"ha":778,"x_min":0,"x_max":0,"o":"m 117 326 b 89 333 103 326 94 328 b 82 354 84 337 82 344 b 83 371 82 357 82 363 b 83 390 83 379 83 386 l 83 446 b 90 479 83 463 86 475 b 128 486 95 484 107 486 l 653 486 b 688 481 672 486 684 484 b 694 450 692 477 694 467 l 694 368 b 686 335 694 351 692 340 b 647 326 681 329 668 326 m 117 590 b 89 597 103 590 94 592 b 82 618 84 601 82 608 b 83 635 82 621 82 626 b 83 654 83 643 83 650 l 83 710 b 90 743 83 727 86 738 b 128 750 95 748 107 750 l 653 750 b 688 744 672 750 684 748 b 694 714 692 741 694 731 l 694 632 b 686 599 694 615 692 604 b 647 590 681 593 668 590 "},">":{"ha":778,"x_min":0,"x_max":0,"o":"m 139 708 b 92 735 113 719 97 727 b 83 796 86 742 83 763 l 83 849 b 94 897 83 881 87 897 b 131 885 97 897 109 893 l 636 689 b 685 648 660 680 676 666 b 697 575 693 630 697 606 b 696 528 697 566 697 550 b 694 476 695 507 694 489 b 686 415 694 443 692 423 b 639 389 681 408 665 399 l 142 196 b 97 179 114 185 99 179 b 83 226 88 179 83 195 l 83 301 b 85 330 83 313 84 323 b 95 348 87 337 90 343 b 106 358 100 353 104 356 b 126 365 109 359 115 361 b 147 372 136 368 144 370 l 503 510 b 561 538 542 525 561 535 b 508 565 561 542 544 551 "},"?":{"ha":875,"x_min":0,"x_max":0,"o":"m 276 139 b 326 257 276 185 293 225 b 443 306 359 289 398 306 b 560 257 488 306 528 289 b 610 139 593 225 610 185 b 560 21 610 93 593 53 b 443 -28 528 -12 488 -28 b 326 21 398 -28 359 -12 b 276 139 293 53 276 93 m 331 897 b 347 874 331 891 336 883 b 378 834 357 866 368 852 b 394 764 389 816 394 793 b 347 656 394 721 379 685 b 232 611 316 626 277 611 b 113 663 186 611 146 628 b 63 793 79 697 63 740 b 161 985 63 865 95 929 b 446 1069 227 1041 322 1069 b 847 792 713 1069 847 977 b 621 522 847 671 772 581 b 601 516 616 520 610 518 b 585 510 593 514 588 512 b 574 502 582 509 578 506 b 567 486 570 498 568 493 b 565 461 566 480 565 471 l 565 411 b 560 379 565 394 564 383 b 536 374 557 375 549 374 l 339 374 b 295 380 315 374 300 376 b 288 415 290 384 288 396 l 288 483 b 288 517 288 499 288 510 b 297 536 289 524 292 531 b 309 546 303 542 307 545 b 336 556 311 547 320 550 b 488 646 402 579 452 609 b 540 792 523 683 540 731 b 514 907 540 845 531 884 b 418 942 496 930 464 942 b 331 897 360 942 331 927 "},"@":{"ha":1597,"x_min":0,"x_max":0,"o":"m 936 481 b 934 534 936 504 935 522 b 922 567 933 547 929 557 b 894 581 916 576 906 581 b 818 494 866 581 840 552 b 785 333 796 437 785 383 b 790 269 785 302 787 281 b 811 253 794 258 801 253 b 895 326 840 253 868 277 b 936 481 922 375 936 427 m 1214 -135 b 721 -311 1094 -252 930 -311 b 555 -292 667 -311 612 -305 b 380 -226 498 -279 440 -257 b 221 -111 320 -195 267 -156 b 107 65 175 -66 137 -7 b 63 307 77 138 63 218 b 176 718 63 457 100 594 b 478 1008 252 842 353 939 b 882 1111 603 1077 738 1111 b 1346 955 1079 1111 1234 1059 b 1514 557 1458 851 1514 718 b 1464 331 1514 477 1497 402 b 1317 156 1431 260 1381 202 b 1099 88 1252 110 1179 88 b 942 158 1033 88 981 111 b 910 190 924 180 913 190 b 903 186 908 190 906 189 b 891 173 901 183 897 179 l 872 154 b 700 90 825 112 768 90 b 551 140 640 90 590 107 b 492 292 511 174 492 224 b 528 476 492 347 504 409 b 647 659 553 543 592 604 b 831 742 701 714 762 742 b 960 689 894 742 937 724 b 972 667 964 681 969 674 b 980 651 976 659 978 654 b 983 646 981 647 982 646 b 996 694 984 646 988 662 b 1007 717 999 706 1002 714 b 1031 722 1012 721 1019 722 l 1178 722 b 1223 719 1201 722 1216 721 b 1233 706 1230 718 1233 713 b 1225 667 1233 704 1231 691 l 1139 306 b 1133 268 1135 283 1133 271 b 1164 236 1133 247 1144 236 b 1293 322 1207 236 1250 265 b 1357 563 1336 380 1357 460 b 1331 713 1357 618 1348 668 b 1262 822 1313 757 1290 794 b 1163 894 1234 851 1200 875 b 1049 935 1125 914 1087 928 b 933 947 1011 943 972 947 b 732 906 865 947 798 933 b 553 789 666 878 607 839 b 424 595 500 739 457 674 b 375 335 391 516 375 429 b 483 -19 375 188 411 70 b 771 -151 554 -107 650 -151 b 951 -134 841 -151 901 -146 b 1097 -56 1000 -122 1049 -96 b 1113 -42 1102 -52 1107 -47 b 1126 -29 1119 -36 1124 -32 b 1136 -22 1129 -26 1132 -24 b 1146 -18 1140 -19 1143 -18 b 1186 -46 1154 -18 1168 -27 l 1217 -76 b 1236 -104 1230 -89 1236 -99 b 1214 -135 1236 -111 1229 -121 "}}}
